<?xml version="1.0" standalone="no"?>
<!DOCTYPE svg PUBLIC "-//W3C//DTD SVG 20010904//EN"
 "http://www.w3.org/TR/2001/REC-SVG-20010904/DTD/svg10.dtd">
<svg version="1.0" xmlns="http://www.w3.org/2000/svg"
 width="460.000000pt" height="460.000000pt" viewBox="0 0 460.000000 460.000000"
 preserveAspectRatio="xMidYMid meet">
<metadata>
Created by potrace 1.14, written by Peter Selinger 2001-2017
</metadata>
<g transform="translate(0.000000,460.000000) scale(0.100000,-0.100000)"
fill="#000000" stroke="none">
<path d="M1508 4275 c-1 -1 -25 -5 -53 -8 -121 -14 -307 -97 -399 -177 -96
-83 -137 -135 -321 -405 -61 -88 -138 -200 -172 -250 -34 -49 -87 -127 -119
-173 -170 -250 -204 -415 -159 -782 1 -14 6 -61 9 -105 4 -44 8 -93 10 -110 3
-16 7 -70 10 -120 4 -49 8 -101 11 -115 2 -14 7 -65 10 -115 3 -49 8 -97 10
-105 2 -8 7 -59 10 -113 4 -53 8 -107 10 -120 2 -12 6 -52 9 -89 9 -108 18
-200 21 -238 2 -19 7 -71 10 -115 21 -253 105 -439 270 -594 120 -112 246
-177 420 -217 34 -8 131 -8 970 -1 836 8 863 8 935 18 67 9 218 54 234 70 6 5
16 9 23 9 27 0 752 355 822 402 49 33 201 183 201 198 0 5 7 15 15 23 45 46
119 237 135 350 11 76 6 243 -9 327 -6 30 -13 75 -16 100 -3 25 -8 56 -10 70
-3 14 -7 45 -10 70 -3 25 -10 72 -15 105 -5 33 -12 78 -15 100 -3 22 -8 54
-10 70 -3 17 -8 50 -11 75 -3 25 -7 56 -10 70 -2 14 -11 75 -20 135 -16 118
-22 156 -29 195 -2 14 -7 50 -10 80 -3 30 -8 63 -11 72 -3 9 -6 32 -8 50 -2
18 -6 47 -9 63 -3 17 -9 53 -12 80 -3 28 -13 95 -21 150 -8 55 -17 116 -19
135 -3 19 -7 46 -10 60 -3 14 -7 37 -10 52 -19 103 -99 258 -186 358 -154 179
-348 272 -619 295 -72 6 -99 9 -185 19 -22 3 -71 8 -110 11 -38 3 -88 8 -110
10 -22 3 -65 7 -95 10 -30 3 -76 7 -102 10 -73 8 -137 14 -203 20 -33 3 -78 8
-100 11 -22 2 -69 7 -105 10 -35 2 -76 6 -90 9 -14 2 -59 6 -100 10 -41 3 -91
8 -110 10 -78 10 -118 15 -190 20 -41 4 -88 9 -105 11 -38 6 -242 13 -247 9z"/>
</g>
</svg>
